<?xml version="1.0" encoding="utf-8"?>
<!-- Generator: Adobe Illustrator 18.1.1, SVG Export Plug-In . SVG Version: 6.00 Build 0)  -->
<!DOCTYPE svg PUBLIC "-//W3C//DTD SVG 1.1//EN" "http://www.w3.org/Graphics/SVG/1.1/DTD/svg11.dtd">
<svg version="1.1" id="Layer_1" xmlns="http://www.w3.org/2000/svg" xmlns:xlink="http://www.w3.org/1999/xlink" x="0px" y="0px"
	 width="40px" height="40px" viewBox="0 0 40 40" style="enable-background:new 0 0 40 40;" xml:space="preserve">
<style type="text/css">
	.st0{fill:#EEEEEE;}
</style>
<g>
	<path class="st0" d="M20,40c-2.7,0-5.3-0.5-7.8-1.6c-2.4-1-4.5-2.4-6.4-4.3c-1.8-1.8-3.3-4-4.3-6.4C0.5,25.3,0,22.7,0,20
		c0-2.7,0.5-5.3,1.6-7.8c1-2.4,2.4-4.5,4.3-6.4c1.8-1.8,4-3.3,6.4-4.3C14.7,0.5,17.3,0,20,0c2.7,0,5.3,0.5,7.8,1.6
		c2.4,1,4.5,2.4,6.4,4.3c1.8,1.8,3.3,4,4.3,6.4c1,2.5,1.6,5.1,1.6,7.8c0,2.7-0.5,5.3-1.6,7.8c-1,2.4-2.4,4.5-4.3,6.4
		c-1.8,1.8-4,3.3-6.4,4.3C25.3,39.5,22.7,40,20,40z M20,1.6c-4.9,0-9.6,1.9-13,5.4c-3.5,3.5-5.4,8.1-5.4,13S3.5,29.6,7,33
		c3.5,3.5,8.1,5.4,13,5.4s9.6-1.9,13-5.4c3.5-3.5,5.4-8.1,5.4-13S36.5,10.4,33,7C29.6,3.5,24.9,1.6,20,1.6z"/>
</g>
<g>
	<path class="st0" d="M8.1,19.3l8.3-4v2.4l-6.4,3l6.4,3v2.4l-8.3-4V19.3z"/>
	<path class="st0" d="M18.8,8.1h2.4v23.7h-2.4V8.1z"/>
	<path class="st0" d="M31.9,18.7l-8.3,4v-2.4l6.4-3l-6.4-3v-2.4l8.3,4V18.7z"/>
</g>
</svg>
