<?xml version="1.0" encoding="utf-8"?>
<!-- Generator: Adobe Illustrator 18.1.1, SVG Export Plug-In . SVG Version: 6.00 Build 0)  -->
<!DOCTYPE svg PUBLIC "-//W3C//DTD SVG 1.1//EN" "http://www.w3.org/Graphics/SVG/1.1/DTD/svg11.dtd">
<svg version="1.1" id="Layer_1" xmlns="http://www.w3.org/2000/svg" xmlns:xlink="http://www.w3.org/1999/xlink" x="0px" y="0px"
	 width="20px" height="20px" viewBox="0 0 20 20" style="enable-background:new 0 0 20 20;" xml:space="preserve">
<style type="text/css">
	.st0{fill:#FFFFFF;}
</style>
<g>
	<path class="st0" d="M20,10c0,5.5-4.5,10-10,10C4.5,20,0,15.5,0,10C0,4.5,4.5,0,10,0C15.5,0,20,4.5,20,10z M10.8,6.6
		c0-0.7,0.1-1.1,1-1.1h1.4l0.1-2.4c0,0-0.7-0.1-1.9-0.1C9,2.9,7.9,4.4,7.9,6.1c0,1.1,0,2.3,0,2.3H6.2v2.5h1.7v6.2h2.9v-6.2h2.3
		l0.2-2.5h-2.5V6.6z"/>
</g>
</svg>
