<?xml version="1.0" encoding="utf-8"?>
<!-- Generator: Adobe Illustrator 18.1.1, SVG Export Plug-In . SVG Version: 6.00 Build 0)  -->
<!DOCTYPE svg PUBLIC "-//W3C//DTD SVG 1.1//EN" "http://www.w3.org/Graphics/SVG/1.1/DTD/svg11.dtd">
<svg version="1.1" id="Layer_1" xmlns:sketch="http://www.bohemiancoding.com/sketch/ns"
	 xmlns="http://www.w3.org/2000/svg" xmlns:xlink="http://www.w3.org/1999/xlink" x="0px" y="0px" width="63.4px" height="72px"
	 viewBox="-81 437 63.4 72" enable-background="new -81 437 63.4 72" xml:space="preserve">
<title>Logo</title>
<desc>Created with Sketch.</desc>
<g id="Group-5">
	<g id="Clip-4">
	</g>
</g>
<g id="Clip-7">
</g>
<g>
	<g>
		<polygon fill="#343433" points="-81,460.6 -70.8,460 -70.8,507.2 -81,506.8 		"/>
		<polygon fill="#343433" points="-69.2,507.2 -58.4,507.7 -58.4,446.1 -69.2,447 		"/>
		<polygon fill="#343433" points="-56.8,507.7 -45.5,508.1 -45.5,437 -56.8,438.1 		"/>
		<polygon fill="#343433" points="-43.9,508.2 -32,508.6 -32,460.8 -43.9,461.4 		"/>
		<polygon fill="#343433" points="-30.1,454.5 -30.1,508.6 -17.6,509 -17.6,453.6 		"/>
	</g>
	<g>
		<path fill="#636462" d="M-30.1,506.1c5.3,1.2,9.3,2.1,12.5,2.5v-25c-2.5,2.2-6.4,4.6-12.5,4.8V506.1z"/>
		<path fill="#636462" d="M-43.9,484.8v17.3c2.3,1,4.4,1.9,6.6,2.4c1.9,0.4,3.6,0.8,5.3,1.2v-17.5c-1.3,0-2.8-0.2-4.2-0.5
			C-38.8,487.3-41.4,486.2-43.9,484.8z"/>
		<path fill="#636462" d="M-56.8,494.7c3.8,2.3,7.6,4.7,11.3,6.5v-17.4c-3.6-2.2-7.3-5-11.3-7.2C-56.8,476.6-56.8,494.7-56.8,494.7z
			"/>
		<path fill="#636462" d="M-69.2,488c3.5,1.6,7.1,3.6,10.8,5.8v-18.1c-3.3-1.8-6.8-3.2-10.8-3.7V488z"/>
		<path fill="#636462" d="M-81,485.7c0.6,0,1.1-0.1,1.8-0.1c2.7-0.1,5.6,0.6,8.5,1.8v-15.5c-1-0.1-2-0.1-3,0
			c-2.5,0.1-4.9,0.8-7.2,1.9V485.7z"/>
	</g>
</g>
</svg>
