<?xml version="1.0" encoding="utf-8"?>
<!-- Generator: Adobe Illustrator 18.1.1, SVG Export Plug-In . SVG Version: 6.00 Build 0)  -->
<!DOCTYPE svg PUBLIC "-//W3C//DTD SVG 1.1//EN" "http://www.w3.org/Graphics/SVG/1.1/DTD/svg11.dtd">
<svg version="1.1" id="Layer_1" xmlns="http://www.w3.org/2000/svg" xmlns:xlink="http://www.w3.org/1999/xlink" x="0px" y="0px"
	 width="32px" height="32px" viewBox="0 0 32 32" enable-background="new 0 0 32 32" xml:space="preserve">
<g>
	<path fill="#FFFFFF" d="M32,2v28c0,1.1-0.9,2-2,2h-8V19.6h4l0.7-4.6H22v-3.6c0-1.3,0.7-2.1,2-2.1h3V5.1c0,0-1.3-0.2-3.3-0.2
		c-4.4,0-6.6,2.4-6.6,6.1v4h-4v4.6h4V32H2c-1.1,0-2-0.9-2-2V2c0-1.1,0.9-2,2-2h28C31.1,0,32,0.9,32,2z"/>
</g>
</svg>
