<?xml version="1.0" encoding="utf-8"?>
<!-- Generator: Adobe Illustrator 18.1.1, SVG Export Plug-In . SVG Version: 6.00 Build 0)  -->
<!DOCTYPE svg PUBLIC "-//W3C//DTD SVG 1.1//EN" "http://www.w3.org/Graphics/SVG/1.1/DTD/svg11.dtd">
<svg version="1.1" id="Layer_1" xmlns="http://www.w3.org/2000/svg" xmlns:xlink="http://www.w3.org/1999/xlink" x="0px" y="0px"
	 width="20px" height="20px" viewBox="6 0 20 20" enable-background="new 6 0 20 20" xml:space="preserve">
<g>
	<path fill="#FFFFFF" d="M26,1.2v17.5c0,0.7-0.6,1.2-1.2,1.2h-5v-7.8h2.5l0.4-2.9h-2.9V7.1c0-0.8,0.4-1.3,1.2-1.3h1.9V3.2
		c0,0-0.8-0.1-2.1-0.1c-2.8,0-4.1,1.5-4.1,3.8v2.5h-2.5v2.9h2.5V20H7.2C6.6,20,6,19.4,6,18.8V1.2C6,0.6,6.6,0,7.2,0h17.5
		C25.4,0,26,0.6,26,1.2z"/>
</g>
</svg>
