<?xml version="1.0" encoding="utf-8"?>
<!-- Generator: Adobe Illustrator 18.1.1, SVG Export Plug-In . SVG Version: 6.00 Build 0)  -->
<!DOCTYPE svg PUBLIC "-//W3C//DTD SVG 1.1//EN" "http://www.w3.org/Graphics/SVG/1.1/DTD/svg11.dtd">
<svg version="1.1" id="Layer_1" xmlns:sketch="http://www.bohemiancoding.com/sketch/ns"
	 xmlns="http://www.w3.org/2000/svg" xmlns:xlink="http://www.w3.org/1999/xlink" x="0px" y="0px" width="448px" height="80px"
	 viewBox="-25 211 448 80" enable-background="new -25 211 448 80" xml:space="preserve">
<g>
	<path fill="#343433" d="M159.2,225c-2.8-0.1-5.2,2.2-5.2,5.1c0,2.9,2.4,5.4,5.2,5.4c2.8,0,5.1-2.3,5.1-5.2
		C164.3,227.5,162,225.1,159.2,225L159.2,225z"/>
	<path fill="#343433" d="M361.3,236.6c-0.8,0-1.3,0.7-1.3,1.6c0,0.9,0.6,1.5,1.3,1.6c0.8,0,1.4-0.6,1.4-1.5
		C362.6,237.4,362,236.6,361.3,236.6L361.3,236.6z"/>
	<polygon fill="#343433" points="-24.6,234.4 -14.7,233.8 -14.7,279.5 -24.6,279.1 -24.6,234.4 	"/>
	<polygon fill="#343433" points="-13.2,279.5 -2.8,279.9 -2.8,220.4 -13.2,221.3 -13.2,279.5 	"/>
	<polygon fill="#343433" points="-1.2,279.9 9.7,280.3 9.7,211.6 -1.2,212.7 -1.2,279.9 	"/>
	<polygon fill="#343433" points="11.3,280.4 22.8,280.8 22.8,234.6 11.3,235.2 11.3,280.4 	"/>
	<polygon fill="#343433" points="24.6,228.5 24.6,280.8 36.7,281.2 36.7,227.6 24.6,228.5 	"/>
	<path fill="#343433" d="M159.2,225c-2.8-0.1-5.2,2.2-5.2,5.1c0,2.9,2.4,5.4,5.2,5.4c2.8,0,5.1-2.3,5.1-5.2
		C164.3,227.5,162,225.1,159.2,225"/>
	<path fill="#343433" d="M361.3,236.6c-0.8,0-1.3,0.7-1.3,1.6c0,0.9,0.6,1.5,1.3,1.6c0.8,0,1.4-0.6,1.4-1.5
		C362.6,237.4,362,236.6,361.3,236.6"/>
	<path fill="#343433" d="M86.3,226.6v38.5c3,0.4,6.1,0.8,9.3,1.2v-39.5L86.3,226.6z"/>
	<g>
		<path fill="#343433" d="M115.7,269.4C115.7,269.4,115.7,269.4,115.7,269.4C115.7,269.4,115.7,269.4,115.7,269.4z"/>
		<path fill="#343433" d="M98.8,266.5c0,0.1,0,0.1,0,0.1c2.8,0.3,5.8,0.6,8.8,0.9c0,0,0,0,0,0c-0.1-0.3-0.1-0.7-0.1-1
			c0-4.4,4.9-6.5,11-6.2v2.3c0,2.2-0.6,4.2-1.8,5.7c0,0,0,0,0,0c3.5,0.3,7.1,0.5,10.7,0.7v-15.3c0-11.1-5.9-15.7-12.7-15.8
			c-4.9-0.1-10,1.9-14,6.6l5.4,6.4c1.2-2.5,3.7-5.3,7-5.3c3.9,0,5.4,2.9,5.4,7v1.5C104.6,254,98.8,259.3,98.8,266.5z"/>
	</g>
	<path fill="#343433" d="M141.6,244.6l-0.1,0c-0.4-3.5-1.3-5.8-1.3-5.8l-7.7-0.1c0.7,1.7,0.7,4.2,0.7,5.5v24.9
		c2.9,0.1,5.8,0.2,8.8,0.2v-13.8c0-4.3,2.3-7.4,6.9-7.4c1.1,0,2.2,0.4,2.4,0.5l1.2-10.4C147.3,238.4,143.9,240.3,141.6,244.6z"/>
	<path fill="#343433" d="M154.8,239.1v30.4c2.8,0,5.7-0.1,8.6-0.2v-30.2L154.8,239.1z"/>
	<path fill="#343433" d="M360.2,245v8.9c0.7,0,1.4,0,2,0v-8.9L360.2,245z"/>
	<g>
		<path fill="#343433" d="M60.4,260.9C60.4,260.9,60.4,260.9,60.4,260.9c-0.5-2.4-0.7-5-0.7-7.8c0-9,2-16.7,8.6-16.6
			c3.9,0.1,6.1,2.8,7.3,6.9l8.2-4.8c-2.5-6.2-7.2-10.7-15.5-10.9C54,227.3,50,240,50,253c0,1.9,0.1,3.9,0.3,5.7
			C52.8,259.3,56.2,260,60.4,260.9z"/>
		<path fill="#343433" d="M50.6,260.6c-0.1-0.6-0.2-1.3-0.2-1.9C50.4,259.4,50.5,260,50.6,260.6z"/>
	</g>
	<path fill="#343433" d="M207.5,239.8l-4.4,19.3c-0.3,1.4-0.8,4-0.8,4h-0.1c0,0-0.5-2.4-0.8-3.9l-4.5-19.5l-9.5-0.1l8.3,27.8
		c4.5-0.4,9.1-0.9,13.8-1.4l6.7-26L207.5,239.8z"/>
	<g>
		<path fill="#343433" d="M170.5,269.1c3.1-0.1,6.3-0.3,9.5-0.5c-0.8-0.7-1.2-1.8-1.2-3.2v-18.5l7,0.1v-7.3l-7-0.1v-10.9l-8.4-0.2
			v10.9l-3.9-0.1v7.4l3.9,0v19.4C170.3,267.2,170.4,268.2,170.5,269.1z"/>
		<path fill="#343433" d="M181.1,269.3c0,0,0.1,0,0.1,0C181.2,269.3,181.1,269.3,181.1,269.3z"/>
	</g>
	<g>
		<path fill="#343433" d="M232.9,263.6c-0.2,0-0.3,0.1-0.5,0.1C232.6,263.6,232.7,263.6,232.9,263.6z"/>
		<path fill="#343433" d="M229.4,231.6l-9.6-0.2v33.5c0.8-0.1,1.6-0.2,2.4-0.3v-0.7l6,0c2-0.2,4-0.5,6-0.7c-0.1,0-0.2,0.1-0.3,0.1
			c6.3-1.8,9-7.6,9-15.4C242.9,238.4,238.9,231.8,229.4,231.6z M229.4,261.5l-7.2,0v-27.6l7.2,0.1c7.8,0.1,11.1,5.6,11.1,13.8
			C240.5,256.1,237.2,261.5,229.4,261.5z"/>
		<path fill="#343433" d="M231.4,263.8c-0.2,0-0.3,0-0.5,0.1C231.1,263.8,231.3,263.8,231.4,263.8z"/>
	</g>
	<path fill="#343433" d="M256.2,243.1c-3.8,0-6.8,2.5-8.2,6.6l-0.1,0c0-3.1-0.8-6.1-0.8-6.1l-2.4,0c0,0,0.9,2,0.9,5.5v12.8
		c0.8-0.1,1.6-0.2,2.4-0.3v-5.2c0-6.8,3.6-11.1,8.2-11c0.8,0,1.5,0.1,2.1,0.3l0.6-2.3C258,243.2,257.2,243.1,256.2,243.1z"/>
	<path fill="#343433" d="M269.1,243.3c-6.6-0.1-10.3,6.2-10.3,16.8l0,0.4c0.8-0.1,1.6-0.2,2.4-0.3c0,0,0,0,0,0c0-0.1,0-0.1,0-0.2
		c0-9.1,2.7-14.4,7.9-14.4c4.9,0.1,7.5,4.8,7.8,12.9c0.8-0.1,1.5-0.2,2.3-0.2l0,1.8C279.3,249.6,275.6,243.3,269.1,243.3z"/>
	<path fill="#343433" d="M298.3,231.1v13c0,2.3,0.1,4.9,0.1,4.9l-0.1,0c-1.3-3.1-3.5-5.4-6.9-5.5c-6.4-0.1-9.6,6.1-9.6,16.5
		c0-0.7,0-1.4,0-2c0.8-0.1,1.6-0.2,2.3-0.2c0,0,0,0,0,0c0.4-7.6,2.6-12,7.3-11.9c4.7,0.1,6.9,4.7,7,10.6c0.7-0.1,1.5-0.1,2.2-0.2
		l0-25.2L298.3,231.1z"/>
	<g>
		<path fill="#343433" d="M321,244.5v10.4c0.7,0,1.4-0.1,2.2-0.1v-10.3L321,244.5z"/>
		<path fill="#343433" d="M304.9,256c0.7-0.1,1.5-0.1,2.2-0.2v-11.5l-2.2,0V256z"/>
	</g>
	<path fill="#343433" d="M336.2,244.1c-4.8-0.1-8,3.8-9,10.5c0.7,0,1.5-0.1,2.2-0.1c0.9-5.2,3.2-8.2,6.8-8.1c3.3,0,5.4,2.5,6.4,6.6
		l2-0.6C343.4,247.4,340.8,244.2,336.2,244.1z"/>
	<path fill="#343433" d="M348.5,254c0.7,0,1.4,0,2.1,0v-6.8l6.4,0.1V245l-6.4-0.1v-6.8l-2.1,0v6.8l-3.8,0v2.3l3.8,0V254z"/>
	<g>
		<path fill="#343433" d="M374.5,244.6c-5.1-0.1-8.2,4.5-8.8,12.3c0.1-1,0.2-2,0.4-2.9c0.7,0,1.4,0,2.1,0c0.9-4.6,3.1-7.2,6.3-7.2
			c3.3,0,5.4,2.7,6.3,7.4c0.7,0,1.4,0,2.1,0.1C381.8,248.2,379,244.7,374.5,244.6z"/>
		<path fill="#343433" d="M382.9,254.4c0.1,0.4,0.1,0.9,0.2,1.3C383.1,255.2,383,254.8,382.9,254.4z"/>
		<polygon fill="#343433" points="382.9,254.4 382.9,254.4 382.9,254.4 		"/>
	</g>
	<path fill="#343433" d="M395.5,244.9c-3.2,0-5.6,2.2-6.8,5.9h-0.1c0-2.8-0.7-5.4-0.7-5.4l-2,0c0,0,0.8,1.8,0.8,5v4.1
		c0.7,0,1.5,0.1,2.2,0.1c0.8-4.7,3.3-7.5,6.6-7.5c3.5,0,5.2,2.8,5.6,8c0,0,0,0,0,0c0.6,0,1.3,0.1,1.9,0.1c0,0.6,0,1.2,0,1.8
		C403,250.4,401.5,245,395.5,244.9z"/>
	<path fill="#343433" d="M413.9,245.3c-4.2-0.1-7.5,2.9-7.5,7.4c0,1.1,0.2,2,0.5,2.8c0.8,0,1.7,0.1,2.5,0.1c-0.7-0.8-1.1-1.7-1.1-3
		c0-3.4,2.6-5.2,5.5-5.2c3,0,4.7,1.3,6.5,4l1.4-1.5C419.6,246.9,417.5,245.3,413.9,245.3z"/>
</g>
<title>Logo</title>
<desc>Created with Sketch.</desc>
<g id="Group-5">
	<g id="Clip-4">
	</g>
</g>
<g id="Clip-7">
</g>
<g>
	<path fill="#636462" d="M24.6,278.4c5.1,1.2,9,2,12.1,2.4v-24.2c-2.4,2.1-6.2,4.4-12.1,4.6V278.4z"/>
	<path fill="#636462" d="M11.3,257.8v16.7c2.2,1,4.3,1.8,6.4,2.3c1.8,0.4,3.5,0.8,5.1,1.2v-16.9c-1.3,0-2.7-0.2-4.1-0.5
		C16.2,260.2,13.7,259.2,11.3,257.8z"/>
	<path fill="#636462" d="M68.3,269.7c-4.5,0-6.9-3.6-7.9-8.8c-4.2-0.8-7.6-1.6-10.1-2.2c1.1,10.8,5.8,19.9,18,19.8
		c7.9-0.1,12.6-4,15.2-9.8l-7.9-5.2c0,0-0.1,0-0.1,0C74.1,267.2,71.9,269.7,68.3,269.7z"/>
	<path fill="#636462" d="M195.6,267.3l2.9,9.6c-0.9,3.5-1.8,5.6-4.2,5.6c-1.6,0-2.9-1.1-3.7-2.2l-4.1,7.1c2.6,2.3,4.8,3,8.3,3
		c6-0.1,9.3-4.1,11.8-13.7l2.7-10.7C204.8,266.5,200.2,266.9,195.6,267.3z"/>
	<path fill="#636462" d="M86.3,265.1v12.5l9.3-0.1v-11.3C92.3,265.9,89.2,265.6,86.3,265.1z"/>
	<path fill="#636462" d="M133.2,269.2v8.1l8.8-0.1v-7.8C139,269.4,136.1,269.3,133.2,269.2z"/>
	<path fill="#636462" d="M163.4,269.4c-2.9,0.1-5.8,0.1-8.6,0.2v7.6l8.6-0.1V269.4z"/>
	<path fill="#636462" d="M180.9,277.6c2.1,0,4.1-0.2,5.6-0.6l-1.3-8c-0.6,0.4-1.3,0.7-2.6,0.7c-1,0-1.9-0.4-2.5-1
		c-3.2,0.2-6.3,0.4-9.5,0.5C171.3,274.7,174.3,277.6,180.9,277.6z"/>
	<g>
		<path fill="#636462" d="M228.2,263.9l1.2,0c1.8,0,3.4-0.2,4.8-0.7C232.2,263.5,230.2,263.7,228.2,263.9z"/>
		<path fill="#636462" d="M222.2,264.6c-0.8,0.1-1.6,0.2-2.4,0.3v11.7l2.4,0V264.6z"/>
	</g>
	<path fill="#636462" d="M245.5,261.9v14.4l2.4,0v-14.7C247.1,261.8,246.3,261.8,245.5,261.9z"/>
	<path fill="#636462" d="M269.1,276.8c6.5-0.1,10.2-6.3,10.2-16.8c0-0.6,0-1.2,0-1.8c-0.8,0.1-1.6,0.2-2.3,0.2c0,0.5,0,1,0,1.6
		c0,9-2.7,14.3-7.9,14.4c-5.2,0-7.9-5.2-7.9-14.3c-0.8,0.1-1.6,0.2-2.4,0.3C258.9,270.8,262.6,276.9,269.1,276.8z"/>
	<path fill="#636462" d="M291.3,276.6c3.9,0,5.9-2.7,7-5.5l0.1,0c0,2.7,0.7,4.8,0.7,4.8l2.3,0c0,0-0.9-1.9-0.9-5.3v-14.2
		c-0.7,0.1-1.5,0.1-2.2,0.2c0,0.1,0,0.2,0,0.3v6.1c0,6.8-2.4,11.3-7,11.3c-5.1,0-7.3-5.2-7.3-14.2c0-0.8,0-1.5,0.1-2.3
		c-0.8,0.1-1.6,0.1-2.3,0.2c0,0.7,0,1.3,0,2C281.7,270.5,285.2,276.7,291.3,276.6z"/>
	<path fill="#636462" d="M313.4,276.4c3.5,0,6.2-2.4,7.6-6.4h0.1c0,3,0.8,5.7,0.8,5.7l2.2,0c0,0-0.9-1.9-0.9-5.2v-15.6
		c-0.7,0-1.4,0.1-2.2,0.1v8.6c0,6.4-3.3,10.5-7.6,10.6c-4.5,0-6.3-3.6-6.3-10.5v-7.8c-0.7,0.1-1.5,0.1-2.2,0.2v7.7
		C304.9,270.7,306.7,276.5,313.4,276.4z"/>
	<path fill="#636462" d="M336.2,276.2c4.6,0,7.2-3.3,8.4-8.3l-2-0.6c-1,4.1-3.1,6.7-6.4,6.7c-4.8,0-7.3-5.1-7.3-13.8
		c0-2.1,0.1-4,0.4-5.6c-0.7,0-1.5,0.1-2.2,0.1c-0.3,1.7-0.4,3.5-0.4,5.5C326.8,270.3,330.2,276.3,336.2,276.2z"/>
	<path fill="#636462" d="M354.2,276.1c1.9,0,3.4-1,4.6-1.9l-1-1.9c-0.9,1-2.4,1.6-3.5,1.6c-2.5,0-3.7-1.9-3.7-5.6v-14.3
		c-0.7,0-1.4,0-2.1,0v14.3C348.5,273.1,350.4,276.1,354.2,276.1z"/>
	<path fill="#636462" d="M360.2,275.4l2,0v-21.5c-0.7,0-1.4,0-2,0V275.4z"/>
	<path fill="#636462" d="M383.4,260.3c0-2.2-0.2-4.2-0.5-5.9c-0.7,0-1.4,0-2.1-0.1c0.3,1.7,0.5,3.7,0.5,6c0,8.4-2.3,13.4-6.8,13.4
		c-4.5,0-6.9-4.9-6.9-13.4c0-2.4,0.2-4.4,0.6-6.2c-0.7,0-1.4,0-2.1,0c-0.3,1.8-0.5,3.9-0.5,6.3c0,9.9,3.2,15.7,9,15.7
		C380.2,275.8,383.4,270,383.4,260.3z"/>
	<g>
		<path fill="#636462" d="M388.7,257.6c0-1.1,0.1-2.1,0.2-3c-0.7,0-1.5-0.1-2.2-0.1v20.7l2,0V257.6z"/>
		<path fill="#636462" d="M401.1,257.1v18l1.9,0V257c0-0.6,0-1.2,0-1.8c-0.6,0-1.3-0.1-1.9-0.1C401.1,255.7,401.1,256.4,401.1,257.1
			z"/>
	</g>
	<path fill="#636462" d="M414.6,273.4c-3,0-6.1-1.6-7.5-4.7l-1.6,1.3c1.9,3.9,5.5,5.6,9.1,5.6c4.8,0,8-2.8,8-8.2
		c0-8.4-9.9-7.9-13.2-11.8c-0.8,0-1.6-0.1-2.5-0.1c2.5,6.4,13.8,4.9,13.8,12C420.7,271.5,418.1,273.4,414.6,273.4z"/>
	<path fill="#636462" d="M-1.2,267.4c3.7,2.2,7.3,4.5,10.9,6.3v-16.8c-3.5-2.1-7.1-4.8-10.9-7V267.4z"/>
	<path fill="#636462" d="M-13.2,260.9c3.4,1.5,6.9,3.5,10.4,5.6V249c-3.2-1.7-6.6-3.1-10.4-3.6V260.9z"/>
	<path fill="#636462" d="M-24.6,258.7c0.6,0,1.1-0.1,1.7-0.1c2.6-0.1,5.4,0.6,8.2,1.7v-15c-1-0.1-1.9-0.1-2.9,0
		c-2.4,0.1-4.7,0.8-7,1.8V258.7z"/>
	<path fill="#636462" d="M116.7,268.3c-1.2,1.6-3,2.6-5.3,2.6c-1.8,0-3.5-1.1-3.8-3.4c-3-0.3-5.9-0.6-8.8-0.9
		c0.1,6.5,3.5,11.6,10.7,11.5c4.6,0,7.5-2.5,9.1-4.9l0.1,0c0.2,1.4,0.5,3.2,1.1,4.1l8.7-0.1c-0.9-1.8-1.1-3.7-1.1-5.7V269
		C123.8,268.8,120.2,268.6,116.7,268.3z"/>
</g>
</svg>
