<?xml version="1.0" encoding="utf-8"?>
<!-- Generator: Adobe Illustrator 19.0.0, SVG Export Plug-In . SVG Version: 6.00 Build 0)  -->
<svg version="1.1" id="Layer_1" xmlns:sketch="http://www.bohemiancoding.com/sketch/ns"
	 xmlns="http://www.w3.org/2000/svg" xmlns:xlink="http://www.w3.org/1999/xlink" x="0px" y="0px" viewBox="-6250.7 657 274 48"
	 style="enable-background:new -6250.7 657 274 48;" xml:space="preserve">
<style type="text/css">
	.st0{fill:#EEEEEE;}
	.st1{opacity:0.5;fill:#CCCCCC;}
</style>
<g>
	<title>Logo</title>
	<desc>Created with Sketch.</desc>
	<g id="Group-5">
		<g id="Clip-4">
		</g>
	</g>
	<g id="Clip-7">
	</g>
	<g>
		<g>
			<path class="st0" d="M-6138.8,665.2c-1.7-0.1-3.2,1.3-3.2,3.1s1.5,3.3,3.2,3.3s3.1-1.4,3.1-3.2
				C-6135.6,666.7-6137,665.2-6138.8,665.2L-6138.8,665.2z"/>
			<path class="st0" d="M-6015.6,672.2c-0.5,0-0.8,0.4-0.8,1s0.4,0.9,0.8,1c0.5,0,0.9-0.4,0.9-0.9
				C-6014.9,672.7-6015.2,672.2-6015.6,672.2L-6015.6,672.2z"/>
			<polygon class="st0" points="-6250.7,670.9 -6244.7,670.5 -6244.7,698.4 -6250.7,698.1 			"/>
			<polygon class="st0" points="-6243.8,698.4 -6237.4,698.6 -6237.4,662.4 -6243.8,662.9 			"/>
			<polygon class="st0" points="-6236.5,698.6 -6229.8,698.8 -6229.8,657 -6236.5,657.7 			"/>
			<polygon class="st0" points="-6228.8,698.9 -6221.8,699.2 -6221.8,671 -6228.8,671.4 			"/>
			<polygon class="st0" points="-6220.7,667.3 -6220.7,699.2 -6213.4,699.4 -6213.4,666.7 			"/>
			<path class="st0" d="M-6138.8,665.2c-1.7-0.1-3.2,1.3-3.2,3.1s1.5,3.3,3.2,3.3s3.1-1.4,3.1-3.2
				C-6135.6,666.7-6137,665.2-6138.8,665.2"/>
			<path class="st0" d="M-6015.6,672.2c-0.5,0-0.8,0.4-0.8,1s0.4,0.9,0.8,1c0.5,0,0.9-0.4,0.9-0.9
				C-6014.9,672.7-6015.2,672.2-6015.6,672.2"/>
			<path class="st0" d="M-6183.2,666.1v23.5c1.8,0.2,3.7,0.5,5.7,0.7v-24.1L-6183.2,666.1z"/>
			<g>
				<path class="st0" d="M-6165.2,692.2L-6165.2,692.2L-6165.2,692.2z"/>
				<path class="st0" d="M-6175.5,690.4C-6175.5,690.5-6175.5,690.5-6175.5,690.4c1.7,0.2,3.5,0.4,5.4,0.6l0,0
					c-0.1-0.2-0.1-0.4-0.1-0.6c0-2.7,3-4,6.7-3.8v1.4c0,1.3-0.4,2.6-1.1,3.5l0,0c2.1,0.2,4.3,0.3,6.5,0.4v-9.3
					c0-6.8-3.6-9.6-7.7-9.6c-3-0.1-6.1,1.2-8.5,4l3.3,3.9c0.7-1.5,2.3-3.2,4.3-3.2c2.4,0,3.3,1.8,3.3,4.3v0.9
					C-6172,682.8-6175.5,686.1-6175.5,690.4z"/>
			</g>
			<path class="st0" d="M-6149.5,677.1L-6149.5,677.1c-0.3-2.1-0.9-3.5-0.9-3.5l-4.7-0.1c0.4,1,0.4,2.6,0.4,3.4V692
				c1.8,0.1,3.5,0.1,5.4,0.1v-8.4c0-2.6,1.4-4.5,4.2-4.5c0.7,0,1.3,0.2,1.5,0.3l0.7-6.3C-6146,673.3-6148.1,674.5-6149.5,677.1z"/>
			<path class="st0" d="M-6141.4,673.8v18.5c1.7,0,3.5-0.1,5.2-0.1v-18.4H-6141.4z"/>
			<path class="st0" d="M-6016.3,677.3v5.4c0.4,0,0.9,0,1.2,0v-5.4H-6016.3z"/>
			<g>
				<path class="st0" d="M-6198.9,687L-6198.9,687c-0.3-1.5-0.4-3-0.4-4.8c0-5.5,1.2-10.2,5.2-10.1c2.4,0.1,3.7,1.7,4.4,4.2l5-2.9
					c-1.5-3.8-4.4-6.5-9.4-6.6c-8.7-0.2-11.1,7.5-11.1,15.4c0,1.2,0.1,2.4,0.2,3.5C-6203.6,686.1-6201.5,686.5-6198.9,687z"/>
				<path class="st0" d="M-6204.9,686.8c-0.1-0.4-0.1-0.8-0.1-1.2C-6205,686.1-6205,686.5-6204.9,686.8z"/>
			</g>
			<path class="st0" d="M-6109.3,674.2l-2.7,11.8c-0.2,0.9-0.5,2.4-0.5,2.4h-0.1c0,0-0.3-1.5-0.5-2.4l-2.7-11.9l-5.8-0.1l5.1,16.9
				c2.7-0.2,5.5-0.5,8.4-0.9l4.1-15.8L-6109.3,674.2z"/>
			<g>
				<path class="st0" d="M-6131.9,692c1.9-0.1,3.8-0.2,5.8-0.3c-0.5-0.4-0.7-1.1-0.7-1.9v-11.3l4.3,0.1v-4.4l-4.3-0.1v-6.6l-5.1-0.1
					v6.6l-2.4-0.1v4.5h2.4v11.8C-6132,690.9-6131.9,691.5-6131.9,692z"/>
				<path class="st0" d="M-6125.4,692.1L-6125.4,692.1C-6125.3,692.1-6125.4,692.1-6125.4,692.1z"/>
			</g>
			<g>
				<path class="st0" d="M-6093.9,688.7c-0.1,0-0.2,0.1-0.3,0.1C-6094,688.7-6094,688.7-6093.9,688.7z"/>
				<path class="st0" d="M-6096,669.2l-5.8-0.1v20.4c0.5-0.1,1-0.1,1.5-0.2v-0.4h3.7c1.2-0.1,2.4-0.3,3.7-0.4
					c-0.1,0-0.1,0.1-0.2,0.1c3.8-1.1,5.5-4.6,5.5-9.4C-6087.8,673.3-6090.2,669.3-6096,669.2z M-6096,687.4h-4.4v-16.8l4.4,0.1
					c4.8,0.1,6.8,3.4,6.8,8.4C-6089.2,684.1-6091.2,687.4-6096,687.4z"/>
				<path class="st0" d="M-6094.8,688.8c-0.1,0-0.2,0-0.3,0.1C-6095,688.8-6094.8,688.8-6094.8,688.8z"/>
			</g>
			<path class="st0" d="M-6079.7,676.2c-2.3,0-4.1,1.5-5,4h-0.1c0-1.9-0.5-3.7-0.5-3.7h-1.5c0,0,0.5,1.2,0.5,3.4v7.8
				c0.5-0.1,1-0.1,1.5-0.2v-3.2c0-4.1,2.2-6.8,5-6.7c0.5,0,0.9,0.1,1.3,0.2l0.4-1.4C-6078.6,676.2-6079.1,676.2-6079.7,676.2z"/>
			<path class="st0" d="M-6071.8,676.3c-4-0.1-6.3,3.8-6.3,10.2v0.2c0.5-0.1,1-0.1,1.5-0.2l0,0c0-0.1,0-0.1,0-0.1
				c0-5.5,1.6-8.8,4.8-8.8c3,0.1,4.6,2.9,4.8,7.9c0.5-0.1,0.9-0.1,1.4-0.1v1.1C-6065.6,680.1-6067.8,676.3-6071.8,676.3z"/>
			<path class="st0" d="M-6054,668.9v7.9c0,1.4,0.1,3,0.1,3h-0.1c-0.8-1.9-2.1-3.3-4.2-3.4c-3.9-0.1-5.8,3.7-5.8,10.1
				c0-0.4,0-0.9,0-1.2c0.5-0.1,1-0.1,1.4-0.1l0,0c0.2-4.6,1.6-7.3,4.4-7.2s4.2,2.9,4.3,6.5c0.4-0.1,0.9-0.1,1.3-0.1v-15.4H-6054z"/>
			<g>
				<path class="st0" d="M-6040.2,677v6.3c0.4,0,0.9-0.1,1.3-0.1V677H-6040.2z"/>
				<path class="st0" d="M-6050,684c0.4-0.1,0.9-0.1,1.3-0.1v-7h-1.3V684z"/>
			</g>
			<path class="st0" d="M-6030.9,676.8c-2.9-0.1-4.9,2.3-5.5,6.4c0.4,0,0.9-0.1,1.3-0.1c0.5-3.2,1.9-5,4.1-4.9c2,0,3.3,1.5,3.9,4
				l1.2-0.4C-6026.5,678.8-6028.1,676.9-6030.9,676.8z"/>
			<path class="st0" d="M-6023.4,682.8c0.4,0,0.9,0,1.3,0v-4.1l3.9,0.1v-1.4l-3.9-0.1v-4.1h-1.3v4.1h-2.3v1.4h2.3V682.8z"/>
			<g>
				<path class="st0" d="M-6007.6,677.1c-3.1-0.1-5,2.7-5.4,7.5c0.1-0.6,0.1-1.2,0.2-1.8c0.4,0,0.9,0,1.3,0c0.5-2.8,1.9-4.4,3.8-4.4
					c2,0,3.3,1.6,3.8,4.5c0.4,0,0.9,0,1.3,0.1C-6003.2,679.3-6004.9,677.2-6007.6,677.1z"/>
				<path class="st0" d="M-6002.5,683.1c0.1,0.2,0.1,0.5,0.1,0.8C-6002.4,683.6-6002.4,683.3-6002.5,683.1z"/>
				<path class="st0" d="M-6002.5,683.1L-6002.5,683.1L-6002.5,683.1z"/>
			</g>
			<path class="st0" d="M-5994.8,677.3c-1.9,0-3.4,1.3-4.1,3.6h-0.1c0-1.7-0.4-3.3-0.4-3.3h-1.2c0,0,0.5,1.1,0.5,3v2.5
				c0.4,0,0.9,0.1,1.3,0.1c0.5-2.9,2-4.6,4-4.6c2.1,0,3.2,1.7,3.4,4.9l0,0c0.4,0,0.8,0.1,1.2,0.1c0,0.4,0,0.7,0,1.1
				C-5990.2,680.6-5991.2,677.3-5994.8,677.3z"/>
			<path class="st0" d="M-5983.6,677.5c-2.6-0.1-4.6,1.8-4.6,4.5c0,0.7,0.1,1.2,0.3,1.7c0.5,0,1,0.1,1.5,0.1c-0.4-0.5-0.7-1-0.7-1.8
				c0-2.1,1.6-3.2,3.4-3.2c1.8,0,2.9,0.8,4,2.4l0.9-0.9C-5980.1,678.5-5981.4,677.5-5983.6,677.5z"/>
		</g>
		<g>
			<path class="st1" d="M-6220.7,697.7c3.1,0.7,5.5,1.2,7.4,1.5v-14.7c-1.5,1.3-3.8,2.7-7.4,2.8V697.7z"/>
			<path class="st1" d="M-6228.8,685.1v10.2c1.3,0.6,2.6,1.1,3.9,1.4c1.1,0.2,2.1,0.5,3.1,0.7v-10.3c-0.8,0-1.6-0.1-2.5-0.3
				C-6225.9,686.6-6227.4,686-6228.8,685.1z"/>
			<path class="st0" d="M-6194.1,692.4c-2.7,0-4.2-2.2-4.8-5.4c-2.6-0.5-4.6-1-6.2-1.3c0.7,6.6,3.5,12.1,11,12.1
				c4.8-0.1,7.7-2.4,9.3-6l-4.8-3.2h-0.1C-6190.6,690.9-6191.9,692.4-6194.1,692.4z"/>
			<path class="st0" d="M-6116.6,690.9l1.8,5.8c-0.5,2.1-1.1,3.4-2.6,3.4c-1,0-1.8-0.7-2.3-1.3l-2.5,4.3c1.6,1.4,2.9,1.8,5.1,1.8
				c3.7-0.1,5.7-2.5,7.2-8.3l1.6-6.5C-6111,690.4-6113.8,690.7-6116.6,690.9z"/>
			<path class="st0" d="M-6183.2,689.6v7.6l5.7-0.1v-6.9C-6179.5,690.1-6181.4,689.9-6183.2,689.6z"/>
			<path class="st0" d="M-6154.6,692.1v4.9l5.4-0.1v-4.8C-6151.1,692.2-6152.8,692.1-6154.6,692.1z"/>
			<path class="st0" d="M-6136.2,692.2c-1.8,0.1-3.5,0.1-5.2,0.1v4.6l5.2-0.1V692.2z"/>
			<path class="st0" d="M-6125.5,697.2c1.3,0,2.5-0.1,3.4-0.4l-0.8-4.9c-0.4,0.2-0.8,0.4-1.6,0.4c-0.6,0-1.2-0.2-1.5-0.6
				c-1.9,0.1-3.8,0.2-5.8,0.3C-6131.4,695.4-6129.6,697.2-6125.5,697.2z"/>
			<g>
				<path class="st0" d="M-6096.7,688.9h0.7c1.1,0,2.1-0.1,2.9-0.4C-6094.3,688.6-6095.5,688.7-6096.7,688.9z"/>
				<path class="st0" d="M-6100.4,689.3c-0.5,0.1-1,0.1-1.5,0.2v7.1h1.5V689.3z"/>
			</g>
			<path class="st0" d="M-6086.2,687.6v8.8h1.5v-9C-6085.2,687.6-6085.7,687.6-6086.2,687.6z"/>
			<path class="st0" d="M-6071.8,696.7c4-0.1,6.2-3.8,6.2-10.2c0-0.4,0-0.7,0-1.1c-0.5,0.1-1,0.1-1.4,0.1c0,0.3,0,0.6,0,1
				c0,5.5-1.6,8.7-4.8,8.8c-3.2,0-4.8-3.2-4.8-8.7c-0.5,0.1-1,0.1-1.5,0.2C-6078,693.1-6075.8,696.8-6071.8,696.7z"/>
			<path class="st0" d="M-6058.3,696.6c2.4,0,3.6-1.6,4.3-3.4h0.1c0,1.6,0.4,2.9,0.4,2.9h1.4c0,0-0.5-1.2-0.5-3.2v-8.6
				c-0.4,0.1-0.9,0.1-1.3,0.1c0,0.1,0,0.1,0,0.2v3.7c0,4.1-1.5,6.9-4.3,6.9c-3.1,0-4.4-3.2-4.4-8.6c0-0.5,0-0.9,0.1-1.4
				c-0.5,0.1-1,0.1-1.4,0.1c0,0.4,0,0.8,0,1.2C-6064.1,692.9-6062,696.7-6058.3,696.6z"/>
			<path class="st0" d="M-6044.8,696.5c2.1,0,3.8-1.5,4.6-3.9h0.1c0,1.8,0.5,3.5,0.5,3.5h1.3c0,0-0.5-1.2-0.5-3.2v-9.5
				c-0.4,0-0.9,0.1-1.3,0.1v5.2c0,3.9-2,6.4-4.6,6.5c-2.7,0-3.8-2.2-3.8-6.4V684c-0.4,0.1-0.9,0.1-1.3,0.1v4.7
				C-6050,693-6048.9,696.5-6044.8,696.5z"/>
			<path class="st0" d="M-6030.9,696.4c2.8,0,4.4-2,5.1-5.1l-1.2-0.4c-0.6,2.5-1.9,4.1-3.9,4.1c-2.9,0-4.4-3.1-4.4-8.4
				c0-1.3,0.1-2.4,0.2-3.4c-0.4,0-0.9,0.1-1.3,0.1c-0.2,1-0.2,2.1-0.2,3.4C-6036.7,692.8-6034.6,696.4-6030.9,696.4z"/>
			<path class="st0" d="M-6020,696.3c1.2,0,2.1-0.6,2.8-1.2l-0.6-1.2c-0.5,0.6-1.5,1-2.1,1c-1.5,0-2.3-1.2-2.3-3.4v-8.7
				c-0.4,0-0.9,0-1.3,0v8.7C-6023.4,694.5-6022.3,696.3-6020,696.3z"/>
			<path class="st0" d="M-6016.3,695.9h1.2v-13.1c-0.4,0-0.9,0-1.2,0V695.9z"/>
			<path class="st0" d="M-6002.2,686.7c0-1.3-0.1-2.6-0.3-3.6c-0.4,0-0.9,0-1.3-0.1c0.2,1,0.3,2.3,0.3,3.7c0,5.1-1.4,8.2-4.1,8.2
				c-2.7,0-4.2-3-4.2-8.2c0-1.5,0.1-2.7,0.4-3.8c-0.4,0-0.9,0-1.3,0c-0.2,1.1-0.3,2.4-0.3,3.8c0,6,1.9,9.6,5.5,9.6
				C-6004.1,696.1-6002.2,692.6-6002.2,686.7z"/>
			<g>
				<path class="st0" d="M-5999,685c0-0.7,0.1-1.3,0.1-1.8c-0.4,0-0.9-0.1-1.3-0.1v12.6h1.2V685z"/>
				<path class="st0" d="M-5991.4,684.7v11h1.2v-11c0-0.4,0-0.7,0-1.1c-0.4,0-0.8-0.1-1.2-0.1
					C-5991.4,683.9-5991.4,684.3-5991.4,684.7z"/>
			</g>
			<path class="st0" d="M-5983.2,694.6c-1.8,0-3.7-1-4.6-2.9l-1,0.8c1.2,2.4,3.4,3.4,5.5,3.4c2.9,0,4.9-1.7,4.9-5c0-5.1-6-4.8-8-7.2
				c-0.5,0-1-0.1-1.5-0.1c1.5,3.9,8.4,3,8.4,7.3C-5979.5,693.5-5981,694.6-5983.2,694.6z"/>
			<path class="st1" d="M-6236.5,691c2.3,1.3,4.4,2.7,6.6,3.8v-10.2c-2.1-1.3-4.3-2.9-6.6-4.3C-6236.5,680.3-6236.5,691-6236.5,691z
				"/>
			<path class="st1" d="M-6243.8,687c2.1,0.9,4.2,2.1,6.3,3.4v-10.7c-1.9-1-4-1.9-6.3-2.2V687z"/>
			<path class="st1" d="M-6250.7,685.7c0.4,0,0.7-0.1,1-0.1c1.6-0.1,3.3,0.4,5,1v-9.1c-0.6-0.1-1.2-0.1-1.8,0
				c-1.5,0.1-2.9,0.5-4.3,1.1V685.7z"/>
			<path class="st0" d="M-6164.6,691.5c-0.7,1-1.8,1.6-3.2,1.6c-1.1,0-2.1-0.7-2.3-2.1c-1.8-0.2-3.6-0.4-5.4-0.5
				c0.1,4,2.1,7.1,6.5,7c2.8,0,4.6-1.5,5.5-3h0.1c0.1,0.9,0.3,1.9,0.7,2.5l5.3-0.1c-0.5-1.1-0.7-2.3-0.7-3.5V692
				C-6160.3,691.8-6162.5,691.7-6164.6,691.5z"/>
		</g>
	</g>
</g>
</svg>
